<?xml version="1.0" standalone="no"?>
<!DOCTYPE svg PUBLIC "-//W3C//DTD SVG 20010904//EN"
 "http://www.w3.org/TR/2001/REC-SVG-20010904/DTD/svg10.dtd">
<svg version="1.0" xmlns="http://www.w3.org/2000/svg"
 width="1140.000000pt" height="1105.000000pt" viewBox="0 0 1140.000000 1105.000000"
 preserveAspectRatio="xMidYMid meet">

<g transform="translate(0.000000,1105.000000) scale(0.100000,-0.100000)"
fill="#000000" stroke="none">
<path d="M8849 11015 c-325 -68 -567 -192 -769 -395 -117 -117 -180 -204 -258
-359 -84 -168 -159 -428 -178 -622 -4 -38 -10 -69 -14 -69 -5 0 -19 17 -31 38
-72 119 -192 260 -321 378 -253 232 -615 384 -1002 419 l-78 8 12 -24 c17 -32
252 -375 359 -523 l86 -119 257 -141 c141 -78 254 -144 251 -148 -2 -5 -64 -8
-138 -8 -74 0 -136 -4 -139 -9 -3 -5 77 -119 179 -254 102 -135 185 -248 185
-251 0 -4 -44 16 -97 43 -198 98 -402 164 -613 197 -143 23 -409 23 -565 0
-491 -71 -1007 -318 -1458 -699 l-28 -24 248 -67 248 -68 323 172 c178 95 325
170 328 167 3 -3 -69 -99 -160 -213 -92 -114 -163 -211 -159 -214 5 -4 137
-42 294 -85 l287 -78 552 73 c303 39 554 70 556 67 3 -2 -97 -76 -221 -163
l-225 -158 417 -114 c230 -63 422 -118 426 -122 5 -4 -22 -24 -60 -44 -285
-150 -497 -465 -584 -864 -16 -76 -22 -146 -26 -327 l-5 -230 -142 3 c-77 2
-147 5 -153 7 -10 3 -13 38 -13 126 0 112 -2 126 -25 165 -44 75 -138 103
-220 65 -83 -38 -105 -89 -105 -245 l0 -114 -37 -7 c-55 -10 -119 -80 -128
-139 -8 -50 5 -101 37 -141 21 -27 87 -65 113 -65 13 0 15 -53 15 -466 0 -386
3 -477 16 -534 28 -127 126 -244 252 -303 91 -43 217 -50 320 -18 120 36 229
133 247 218 14 69 -27 148 -96 183 -71 37 -145 24 -211 -35 -76 -69 -161 -36
-173 68 -3 29 -5 239 -3 467 l3 415 145 5 c119 4 151 8 174 23 15 10 30 17 32
14 3 -3 18 -56 35 -118 43 -165 71 -249 82 -242 5 3 6 -12 2 -38 -12 -72 -7
-249 10 -328 57 -272 243 -500 485 -598 107 -43 191 -55 335 -50 149 5 226 25
345 89 41 22 76 35 78 29 9 -27 51 -78 81 -98 47 -32 135 -32 182 0 48 32 77
80 84 140 3 29 5 356 3 727 -3 753 1 709 -74 766 -51 39 -133 44 -189 12 -35
-21 -77 -68 -87 -100 -3 -8 -24 -1 -59 19 -134 75 -289 110 -452 100 -123 -8
-184 -23 -294 -76 -45 -22 -83 -38 -83 -35 0 2 18 33 40 68 l40 63 46 359 c25
197 47 360 49 362 4 4 76 -128 131 -240 l37 -76 229 356 c126 197 234 359 239
360 5 2 9 -1 9 -7 0 -5 66 -74 146 -153 450 -440 804 -948 1163 -1668 254
-509 487 -1103 645 -1639 l33 -115 41 170 c48 200 65 284 92 460 l20 130 -69
205 c-365 1088 -900 2006 -1529 2622 -54 53 -98 97 -97 97 1 0 101 -47 221
-104 211 -100 523 -242 709 -324 50 -22 91 -36 93 -32 3 7 -100 447 -113 488
-15 43 34 -25 225 -313 184 -278 220 -326 250 -338 456 -187 972 -388 979
-382 5 5 -119 238 -191 358 -90 151 -227 349 -326 473 -110 138 -308 342 -437
451 -226 190 -530 364 -788 452 -70 24 -125 46 -122 50 4 3 243 92 532 197
l526 191 -72 51 c-39 27 -139 97 -222 154 -96 66 -144 104 -132 106 10 1 204
-34 432 -77 l414 -80 435 160 c240 88 437 161 439 163 6 6 -242 119 -398 182
-1076 431 -1922 347 -2502 -250 -91 -93 -206 -242 -267 -345 -24 -39 -46 -74
-51 -77 -5 -2 11 50 35 118 186 519 458 1277 467 1297 5 13 8 26 5 28 -3 3
-75 -7 -162 -21 -86 -15 -159 -25 -161 -22 -2 2 90 69 205 147 l210 144 85
240 c47 132 108 304 136 383 l50 142 -32 -1 c-18 0 -84 -11 -148 -24z m-1044
-5190 c153 -40 277 -168 320 -331 21 -79 21 -228 0 -301 -41 -140 -123 -241
-243 -300 -75 -37 -78 -38 -192 -38 -114 0 -117 1 -192 38 -165 81 -260 243
-260 445 0 105 13 166 53 249 93 195 303 292 514 238z"/>
<path d="M1162 6639 c-26 -13 -55 -39 -70 -62 l-27 -41 -3 -933 c-2 -639 1
-947 8 -974 13 -47 59 -102 100 -119 42 -17 134 -8 167 16 67 50 68 52 73 322
l5 247 171 3 171 2 279 -286 c153 -157 291 -292 306 -300 15 -8 51 -14 81 -14
59 0 104 23 140 72 29 39 35 133 12 179 -10 19 -103 121 -208 227 l-190 193
63 37 c180 107 322 304 366 511 18 86 18 227 -1 316 -52 251 -230 464 -468
563 -127 54 -209 62 -591 62 -329 0 -343 -1 -384 -21z m760 -340 c175 -37 309
-179 340 -358 35 -206 -99 -415 -305 -476 -39 -12 -106 -15 -299 -15 l-248 0
0 430 0 430 230 0 c131 0 252 -5 282 -11z"/>
<path d="M3368 6178 c-303 -28 -560 -241 -658 -546 -76 -237 -61 -480 44 -697
100 -206 288 -362 512 -427 104 -30 320 -32 429 -4 122 31 242 96 315 169 91
93 140 177 140 240 0 166 -204 239 -308 111 -107 -135 -155 -166 -284 -186
-204 -31 -397 66 -485 245 -18 36 -33 68 -33 71 0 3 243 7 539 8 l539 3 39 31
c65 52 75 82 69 209 -23 486 -389 817 -858 773z m262 -385 c85 -41 153 -110
195 -198 l34 -70 -406 -3 c-223 -1 -408 0 -411 2 -11 11 66 141 109 184 48 49
132 98 192 113 17 4 75 7 127 6 83 -3 103 -7 160 -34z"/>
<path d="M4458 6170 c-49 -26 -74 -61 -87 -121 -13 -60 -15 -1341 -2 -1408 10
-48 33 -84 75 -115 21 -17 42 -21 96 -21 76 0 107 16 148 75 22 33 22 35 22
439 1 452 7 527 49 615 100 211 372 273 538 123 41 -37 87 -118 105 -184 7
-22 13 -231 17 -505 6 -451 7 -468 27 -494 36 -49 70 -67 133 -72 71 -5 122
19 161 75 l25 37 3 449 c3 492 -3 564 -54 692 -57 142 -165 269 -291 343 -189
111 -436 122 -641 27 l-76 -36 -31 35 c-58 67 -143 85 -217 46z"/>
<path d="M3860 4479 c-163 -11 -387 -43 -525 -76 -60 -14 -112 -27 -114 -29
-3 -3 20 -26 51 -54 109 -97 183 -248 195 -399 5 -69 3 -85 -17 -126 -51 -105
-192 -137 -285 -64 -36 29 -55 72 -66 146 -11 81 -37 131 -90 177 -62 52 -122
69 -233 64 -74 -4 -101 -9 -143 -31 -83 -43 -133 -124 -133 -217 0 -122 58
-161 385 -260 230 -69 354 -130 449 -220 103 -98 155 -201 171 -341 l7 -55 58
57 58 57 1 86 c4 373 235 689 581 798 65 20 95 23 230 23 176 0 245 -15 378
-85 64 -33 74 -36 79 -22 24 68 93 112 174 112 66 0 123 -31 155 -86 23 -40
24 -46 24 -273 l0 -233 23 5 c12 3 48 9 79 12 l57 7 3 452 c3 408 5 454 21
483 22 41 54 72 92 89 25 11 -90 13 -755 12 -432 0 -841 -5 -910 -9z"/>
<path d="M5655 4483 c31 -8 84 -52 106 -87 18 -29 19 -55 19 -452 l0 -422 78
20 c42 10 93 23 113 28 29 8 43 22 82 84 71 112 194 223 309 279 128 62 206
80 353 80 91 0 141 -5 207 -22 l87 -22 138 77 c229 128 452 275 596 396 l59
48 -1084 -1 c-595 -1 -1074 -4 -1063 -6z"/>
<path d="M2070 3724 c-84 -52 -230 -112 -336 -139 -158 -40 -299 -50 -526 -35
-280 18 -483 2 -773 -62 -77 -16 -141 -31 -143 -33 -1 -1 19 -60 46 -131 249
-659 627 -1252 1133 -1777 l94 -97 120 24 c500 104 838 266 1119 536 90 87
295 335 284 345 -2 2 -34 -5 -73 -15 -285 -73 -590 6 -765 196 -58 64 -132
210 -149 292 -18 89 -14 189 10 231 56 99 194 122 279 45 42 -38 55 -68 65
-153 19 -160 134 -258 315 -269 128 -7 214 21 285 91 108 109 115 276 14 361
-44 37 -111 67 -240 106 -226 69 -298 94 -383 138 -152 78 -264 204 -297 335
-6 26 -14 47 -18 46 -3 0 -31 -16 -61 -35z"/>
<path d="M4338 3645 c-107 -27 -183 -79 -252 -174 -35 -48 -82 -151 -68 -151
4 0 57 11 117 25 145 32 282 45 475 45 159 0 220 6 220 21 0 19 -99 136 -142
167 -95 68 -239 95 -350 67z"/>
<path d="M9765 3216 c-224 -80 -393 -162 -579 -280 -164 -105 -273 -189 -548
-418 -306 -256 -402 -330 -558 -434 -275 -181 -548 -300 -875 -383 -317 -79
-580 -110 -1105 -131 -360 -14 -535 -49 -735 -145 -145 -70 -207 -115 -503
-363 -230 -194 -393 -296 -607 -380 -299 -118 -594 -169 -1154 -200 l-124 -7
138 -58 c801 -339 1624 -468 2485 -391 951 85 1866 440 2620 1015 190 145 306
245 489 424 413 405 738 846 990 1344 67 131 201 430 201 446 0 8 -12 5 -135
-39z"/>
</g>
</svg>
